<?xml version="1.0" encoding="utf-8"?>
<!-- Generator: Adobe Illustrator 27.0.0, SVG Export Plug-In . SVG Version: 6.00 Build 0)  -->
<svg version="1.1" id="Livello_1" xmlns="http://www.w3.org/2000/svg" xmlns:xlink="http://www.w3.org/1999/xlink" x="0px" y="0px"
	 viewBox="0 0 24 24" style="enable-background:new 0 0 24 24;" xml:space="preserve">
<style type="text/css">
	.st0{fill:#FFFFFF;}
</style>
<path class="st0" d="M12,12c-1.1,0-2-0.4-2.8-1.2C8.4,10,8,9.1,8,8s0.4-2,1.2-2.8S10.9,4,12,4s2,0.4,2.8,1.2S16,6.9,16,8
	s-0.4,2-1.2,2.8C14,11.6,13.1,12,12,12z M4,20v-2.8c0-0.6,0.1-1.1,0.4-1.6c0.3-0.5,0.7-0.8,1.2-1.1c1-0.5,2.1-0.9,3.2-1.2
	S10.9,13,12,13s2.2,0.1,3.2,0.4s2.1,0.6,3.1,1.2c0.5,0.2,0.9,0.6,1.2,1.1c0.3,0.5,0.4,1,0.4,1.6V20H4z M6,18h12v-0.8
	c0-0.2,0-0.4-0.1-0.5c-0.1-0.2-0.2-0.3-0.4-0.4c-0.9-0.5-1.8-0.8-2.7-1C13.9,15.1,12.9,15,12,15s-1.9,0.1-2.8,0.3
	c-0.9,0.2-1.8,0.6-2.7,1c-0.2,0.1-0.3,0.2-0.4,0.4C6,16.9,6,17,6,17.2V18z M12,10c0.6,0,1-0.2,1.4-0.6C13.8,9,14,8.6,14,8
	s-0.2-1-0.6-1.4C13,6.2,12.6,6,12,6s-1,0.2-1.4,0.6C10.2,7,10,7.4,10,8s0.2,1,0.6,1.4C11,9.8,11.4,10,12,10z"/>
</svg>
