<?xml version="1.0" encoding="utf-8"?>
<!-- Generator: Adobe Illustrator 27.0.0, SVG Export Plug-In . SVG Version: 6.00 Build 0)  -->
<svg version="1.1" id="Livello_1" xmlns="http://www.w3.org/2000/svg" xmlns:xlink="http://www.w3.org/1999/xlink" x="0px" y="0px"
	 viewBox="0 0 200 200" style="enable-background:new 0 0 200 200;" xml:space="preserve">
<style type="text/css">
	.st0{fill:#FFFFFF;}
</style>
<path class="st0" d="M200,22.7v154.6c0,12.5-10.6,22.7-23.6,22.7H132v-74.4h23.2l1.1-12.3l1.7-19h-24.8V81.8c0-6.1,4.1-7.5,6.9-7.5
	c2.9,0,17.5,0,17.5,0V47.6l-24.2-0.1c-26.8,0-32.9,20-32.9,32.8v14.1H85.1v31.3h15.6V200H23.6C10.6,200,0,189.8,0,177.3V22.7
	C0,10.2,10.6,0,23.6,0h152.7C189.4,0,200,10.2,200,22.7z"/>
</svg>
