<?xml version="1.0" encoding="utf-8"?>
<!-- Generator: Adobe Illustrator 27.0.0, SVG Export Plug-In . SVG Version: 6.00 Build 0)  -->
<svg version="1.1" id="Livello_1" xmlns="http://www.w3.org/2000/svg" xmlns:xlink="http://www.w3.org/1999/xlink" x="0px" y="0px"
	 viewBox="0 0 200 200" style="enable-background:new 0 0 200 200;" xml:space="preserve">
<style type="text/css">
	.st0{fill:#FFFFFF;}
</style>
<g>
	<path class="st0" d="M133.7,50.8H66.3c-8.3,0-15.1,6.5-15.1,14.5v69.3c0,8,6.8,14.5,15.1,14.5h67.3c8.3,0,15.1-6.5,15.1-14.5V65.3
		C148.8,57.3,142,50.8,133.7,50.8z M100,130.8c-17,0-30.8-13.8-30.8-30.8S83,69.2,100,69.2S130.8,83,130.8,100S117,130.8,100,130.8z
		 M133.1,74.8c-4,0-7.2-3.2-7.2-7.2c0-4,3.2-7.2,7.2-7.2c4,0,7.2,3.2,7.2,7.2C140.3,71.6,137.1,74.8,133.1,74.8z M100,79.3
		c-11.4,0-20.7,9.3-20.7,20.7s9.3,20.6,20.7,20.6c11.4,0,20.7-9.3,20.7-20.6S111.4,79.3,100,79.3z"/>
	<path class="st0" d="M176.4,0H23.6C10.6,0,0,10.2,0,22.7v154.6C0,189.8,10.6,200,23.6,200h152.7c13,0,23.6-10.2,23.6-22.7V22.7
		C200,10.2,189.4,0,176.4,0z M159,134.7c0,13.6-11.3,24.7-25.3,24.7H66.3c-14,0-25.3-11.1-25.3-24.7V65.3
		c0-13.6,11.3-24.7,25.3-24.7h67.3c14,0,25.3,11.1,25.3,24.7V134.7z"/>
</g>
</svg>
