<?xml version="1.0" encoding="utf-8"?>
<!-- Generator: Adobe Illustrator 27.0.0, SVG Export Plug-In . SVG Version: 6.00 Build 0)  -->
<svg version="1.1" id="Livello_1" xmlns="http://www.w3.org/2000/svg" xmlns:xlink="http://www.w3.org/1999/xlink" x="0px" y="0px"
	 viewBox="0 0 200 200" style="enable-background:new 0 0 200 200;" xml:space="preserve">
<style type="text/css">
	.st0{fill:#FFFFFF;}
</style>
<g>
	<path class="st0" d="M176.4,0H23.6C10.6,0,0,10.2,0,22.7v154.6C0,189.8,10.6,200,23.6,200h152.7c13,0,23.6-10.2,23.6-22.7V22.7
		C200,10.2,189.4,0,176.4,0z M138.4,114.8c-13.2,16.4-34.6,17.5-44.5,7.4c-0.8-0.8-1.4-1.7-2.1-2.6c-0.1,0.4-0.2,0.7-0.3,1
		c-4.8,18.6-5.3,22.7-10.2,31.3c-2.3,4.1-4.9,8-7.8,11.7c-0.3,0.4-0.6,1-1.3,0.8c-0.7-0.2-0.8-0.8-0.8-1.4c-0.8-5.6-1.2-11.3-1-17
		c0.2-7.4,1.2-10,10.8-50.2c0.1-0.6,0-1.1-0.2-1.7c-2.3-6.2-2.7-12.5-0.7-18.8c4.3-13.7,19.9-14.8,22.6-3.5c1.7,7-2.8,16.2-6.2,29.7
		c-2.8,11.2,10.3,19.1,21.6,11c10.4-7.5,14.4-25.5,13.6-38.3c-1.5-25.5-29.5-31-47.2-22.8C64.3,61,59.7,86.1,68.9,97.7
		c1.1,1.5,2,2.3,1.7,3.8c-0.6,2.3-1.1,4.6-1.8,6.9c-0.5,1.7-1.9,2.3-3.6,1.6c-3.4-1.4-6.2-3.5-8.5-6.3C48.9,94,46.7,75,57,58.8
		c11.4-17.9,32.7-25.1,52-23c23.2,2.6,37.8,18.5,40.5,36.4C150.8,80.4,149.9,100.6,138.4,114.8z"/>
</g>
</svg>
