<?xml version="1.0" encoding="utf-8"?>
<!-- Generator: Adobe Illustrator 27.0.0, SVG Export Plug-In . SVG Version: 6.00 Build 0)  -->
<svg version="1.1" id="Livello_1" xmlns="http://www.w3.org/2000/svg" xmlns:xlink="http://www.w3.org/1999/xlink" x="0px" y="0px"
	 viewBox="0 0 200 200" style="enable-background:new 0 0 200 200;" xml:space="preserve">
<style type="text/css">
	.st0{fill:#FFFFFF;}
</style>
<path class="st0" d="M176.4,0H23.6C10.6,0,0,10.2,0,22.7v154.6C0,189.8,10.6,200,23.6,200h152.7c13,0,23.6-10.2,23.6-22.7V22.7
	C200,10.2,189.4,0,176.4,0z M154.2,73c0.1,1.2,0.1,2.4,0.1,3.5c0,5.4-0.7,10.9-1.9,16.4c-7,31.1-33.6,61-76.7,61
	c-15.6,0-30.1-4.5-42.4-12.2c2.2,0.2,4.3,0.4,6.6,0.4c13,0,24.9-4.3,34.3-11.7c-12.1-0.2-22.3-8.1-25.8-18.9
	c1.7,0.3,3.4,0.5,5.2,0.5c2.5,0,5-0.4,7.3-1c-9.3-1.8-16.9-8.3-20.3-16.8c-1.2-3.1-1.9-6.4-1.9-9.9V84c3.7,2,8,3.3,12.5,3.4
	c-7.4-4.9-12.3-13.2-12.3-22.6c0-5,1.4-9.7,3.7-13.7c13.6,16.5,34,27.3,57,28.4c-0.5-2-0.7-4.1-0.7-6.2c0-15,12.4-27.2,27.6-27.2
	c8,0,15.2,3.3,20.2,8.6c6.3-1.2,12.2-3.5,17.6-6.6c-2.1,6.4-6.4,11.7-12.2,15.1c5.6-0.7,10.9-2.1,15.9-4.3
	C164.3,64.3,159.6,69.1,154.2,73z"/>
</svg>
