<?xml version="1.0" encoding="utf-8"?>
<!-- Generator: Adobe Illustrator 27.0.0, SVG Export Plug-In . SVG Version: 6.00 Build 0)  -->
<svg version="1.1" id="Livello_1" xmlns="http://www.w3.org/2000/svg" xmlns:xlink="http://www.w3.org/1999/xlink" x="0px" y="0px"
	 viewBox="0 0 200 200" style="enable-background:new 0 0 200 200;" xml:space="preserve">
<style type="text/css">
	.st0{fill:#FFFFFF;}
</style>
<g>
	<path class="st0" d="M83.5,77c13.8,7.2,27.6,14.4,41.5,21.7c-13.9,7.2-27.7,14.3-41.5,21.5V77z"/>
	<path class="st0" d="M176.4,0H23.6C10.6,0,0,10.2,0,22.7v154.6C0,189.8,10.6,200,23.6,200h152.7c13,0,23.6-10.2,23.6-22.7V22.7
		C200,10.2,189.4,0,176.4,0z M162.6,136.1c-1.6,3.3-4,5.6-7.2,7.3c-8.6,4.5-97.2,4.5-108.5,0.7c-5-1.7-8.4-5-10.3-10
		c-4.5-12.2-5.8-63.3,2.8-73.4c2.9-3.5,6.7-5.5,11.2-6c23.1-2.5,94.3-2.1,102.6,0.8c4.8,1.7,8.2,4.9,10.1,9.7
		C168.1,78,168.3,123.9,162.6,136.1z"/>
</g>
</svg>
